<svg xmlns="http://www.w3.org/2000/svg" width="655.5" height="122.2" viewBox="0 0 655.5 122.2"><path fill-rule="evenodd" clip-rule="evenodd" fill="#009DDF" d="M0 23.8h94.7v23.6h-35v74.1h-23.8v-73.9c-.7-.1-1.1-.2-1.5-.2h-33c-.5 0-.9.1-1.4.2v-23.8zM102.7 120v-96.8h95.9v23.5h-71.9v13.2h71.9v23.5h-71.9v13.2h71.9v23.4zM332.5 59.9h51.9c-1.2 7.8-1.3 15.5.3 23.4h-52.3v13.2h54.4c1.5 0 2.2.5 2.8 1.8 3.3 7.1 7.8 13.4 13.4 18.8.7.7 1.1 1.6 2 2.8h-96.6v-96.7h96.2c-.6.7-.9 1.1-1.3 1.5-6.2 6-11.1 12.8-14.5 20.7-.6 1.3-1.5 1.3-2.5 1.3h-54v13.2zM301.2 96.6v23.4h-95.8v-96.2h23.7v72.8zM179 .1c-3.5 2.5-6.6 4.7-9.8 6.9-3.4 2.4-6.7 4.7-10.1 7-.7.5-1.7.9-2.5.9-10.1.1-20.3 0-30.4 0-.4 0-.7 0-1.6-.1 1-1.2 1.8-2.2 2.6-3.1l9-10.6c.5-.6 1.5-1.2 2.3-1.2 13.1-.1 26.2 0 39.4 0 .2.1.4.2 1.1.2M332.2 14.9c1.3-1.5 2.4-2.8 3.5-4.1 2.7-3.2 5.4-6.5 8.2-9.7.5-.5 1.3-1 1.9-1 13.3-.1 26.6 0 39.9 0 .1 0 .2.1.5.3-2.7 1.9-5.3 3.7-7.9 5.6l-11.7 8.2c-.7.5-1.6.8-2.3.8-10.3.1-20.7 0-31 0-.2 0-.4-.1-1.1-.1"/><path fill="#1A171B" d="M483.5 71.2c0 28.8-9.5 48.8-34.6 49.1-28.2.3-34.6-20.3-34.6-49.1s9.5-50.9 34.6-50.9c25.7 0 34.6 22 34.6 50.9m17.8 0c0-31.5-24.4-52.8-52.4-52.8s-52.4 21.2-52.4 52.8c0 31.5 24.4 51 52.4 51s52.4-19.5 52.4-51m66.9 22.5c0 15.2-9.1 23.9-25.2 23.9h-18.3v-46.6h18.3c16.1 0 25.2 7.6 25.2 22.7m-27.6-25.2h-15.9v-44.7h15.9c14.5 0 24.6 8.4 24.6 22.6 0 14.2-10.1 22.1-24.6 22.1m10.4.4c14.2-1.3 28.1-9 28.1-22.4 0-18.5-16.7-25.1-36.9-25.1h-46.2l1.7.4c6.7 2.8 12.1 2.7 11.8 17.6v62.3c0 15.8-6.7 14.7-13.5 17.5l1.7.5h47.5c22.7 0 37.5-7 37.5-25.8-.1-16.7-17.5-24.5-31.7-25m97.9-32.3c0-10.6-12.2-16.4-26.7-16.4-18.2 0-35.6 9.2-35.6 25.7 0 28.3 56.9 25.3 56.9 51 0 13.1-12.2 22.2-27 22.2-4 0-10-.4-15.2-2.8 1.5-2.9 2.7-6.8 2.7-9.5 0-6.3-3.5-11.3-10.2-11.3-3.5 0-7.4 2.8-7.4 8 0 10.5 13.7 17.4 30.1 17.4 19.3 0 39.1-8.9 39.1-29.4 0-31.7-55.8-29.4-55.8-50.4 0-12.4 12.8-18.9 22.5-18.9 6.4 0 8.8.7 12.3 2-1.5 2.9-2 6-2 8.9 0 6.1 3.2 11.2 9.6 11.2 3.4 0 6.7-2.7 6.7-7.7"/></svg>